<?xml version="1.0" encoding="UTF-8" standalone="no"?>
<!-- Created with Inkscape (http://www.inkscape.org/) -->

<svg
   width="291.43158mm"
   height="291.43158mm"
   viewBox="0 0 291.43158 291.43158"
   version="1.1"
   id="svg89177"
   xml:space="preserve"
   inkscape:version="1.1.1 (3bf5ae0d25, 2021-09-20)"
   sodipodi:docname="logo.svg"
   inkscape:export-filename="D:\dvlpt\Cordova\guichet-mobile-navi\scripts\NaviForest\logo.png"
   inkscape:export-xdpi="89.25"
   inkscape:export-ydpi="89.25"
   xmlns:inkscape="http://www.inkscape.org/namespaces/inkscape"
   xmlns:sodipodi="http://sodipodi.sourceforge.net/DTD/sodipodi-0.dtd"
   xmlns:xlink="http://www.w3.org/1999/xlink"
   xmlns="http://www.w3.org/2000/svg"
   xmlns:svg="http://www.w3.org/2000/svg"><sodipodi:namedview
     id="namedview89179"
     pagecolor="#ffffff"
     bordercolor="#000000"
     borderopacity="0.25"
     inkscape:showpageshadow="2"
     inkscape:pageopacity="0.0"
     inkscape:pagecheckerboard="0"
     inkscape:deskcolor="#d1d1d1"
     inkscape:document-units="mm"
     showgrid="false"
     inkscape:zoom="0.45575304"
     inkscape:cx="-108.61145"
     inkscape:cy="468.45546"
     inkscape:window-width="2880"
     inkscape:window-height="1541"
     inkscape:window-x="-11"
     inkscape:window-y="-11"
     inkscape:window-maximized="1"
     inkscape:current-layer="svg89177"
     showguides="true"
     inkscape:pageshadow="0"><sodipodi:guide
       position="-169.20608,291.85745"
       orientation="0,-1"
       id="guide103377"
       inkscape:locked="false" /></sodipodi:namedview><defs
     id="defs89174"><linearGradient
       inkscape:collect="always"
       id="linearGradient92823"><stop
         style="stop-color:#0461a8;stop-opacity:1;"
         offset="0"
         id="stop92819" /><stop
         style="stop-color:#018dd0;stop-opacity:1;"
         offset="1"
         id="stop92821" /></linearGradient><filter
       inkscape:label="Roughen Inside"
       inkscape:menu="Distort"
       inkscape:menu-tooltip="Roughen all inside shapes"
       style="color-interpolation-filters:sRGB"
       id="filter90381-1-5-6-3-7-4-5-5"
       x="-0.050699016"
       y="-0.051634117"
       width="1.1016892"
       height="1.1034117"><feTurbulence
         numOctaves="7"
         seed="11"
         type="fractalNoise"
         baseFrequency="1.28"
         id="feTurbulence90373-4-4-7-5-0-7-7-4" /><feGaussianBlur
         stdDeviation="0.5"
         result="result91"
         id="feGaussianBlur90375-0-2-7-2-7-1-1-6" /><feDisplacementMap
         scale="20"
         yChannelSelector="G"
         xChannelSelector="R"
         in="SourceGraphic"
         result="result1"
         in2="result91"
         id="feDisplacementMap90377-9-1-7-0-5-5-8-1" /><feComposite
         in="result1"
         in2="SourceGraphic"
         operator="atop"
         id="feComposite90379-0-1-3-0-4-5-5-7" /></filter><inkscape:path-effect
       effect="roughen"
       id="path-effect90401-2-6-9-7-7-7-2-9"
       is_visible="true"
       lpeversion="1.2"
       method="size"
       max_segment_size="1.036"
       segments="3"
       displace_x="0.55;1"
       displace_y="0.3;1"
       global_randomize="1.9;1699903263"
       handles="along"
       shift_nodes="true"
       fixed_displacement="false"
       spray_tool_friendly="true" /><linearGradient
       inkscape:collect="always"
       xlink:href="#linearGradient92823"
       id="linearGradient101862"
       gradientUnits="userSpaceOnUse"
       gradientTransform="matrix(7.7588244,0,0,7.7588244,-307.3583,-663.51821)"
       x1="-68.907974"
       y1="152.2556"
       x2="-33.453735"
       y2="188.15555" /><filter
       inkscape:label="Roughen Inside"
       inkscape:menu="Distort"
       inkscape:menu-tooltip="Roughen all inside shapes"
       style="color-interpolation-filters:sRGB"
       id="filter90381-1-5-6-3-7-4-5-5-0"
       x="-0.05062198"
       y="-0.051538637"
       width="1.1011393"
       height="1.1030576"><feTurbulence
         numOctaves="7"
         seed="11"
         type="fractalNoise"
         baseFrequency="1.28"
         id="feTurbulence90373-4-4-7-5-0-7-7-4-1" /><feGaussianBlur
         stdDeviation="0.5"
         result="result91"
         id="feGaussianBlur90375-0-2-7-2-7-1-1-6-7" /><feDisplacementMap
         scale="20"
         yChannelSelector="G"
         xChannelSelector="R"
         in="SourceGraphic"
         result="result1"
         in2="result91"
         id="feDisplacementMap90377-9-1-7-0-5-5-8-1-3" /><feComposite
         in="result1"
         in2="SourceGraphic"
         operator="atop"
         id="feComposite90379-0-1-3-0-4-5-5-7-6" /></filter><inkscape:path-effect
       effect="roughen"
       id="path-effect90401-2-6-9-7-7-7-2-9-4"
       is_visible="true"
       lpeversion="1.2"
       method="size"
       max_segment_size="1.036"
       segments="3"
       displace_x="0.55;1"
       displace_y="0.3;1"
       global_randomize="1.9;1079256526"
       handles="along"
       shift_nodes="true"
       fixed_displacement="false"
       spray_tool_friendly="true" /><filter
       inkscape:label="Roughen Inside"
       inkscape:menu="Distort"
       inkscape:menu-tooltip="Roughen all inside shapes"
       style="color-interpolation-filters:sRGB"
       id="filter90381-1-5-6-3-7-4-5-5-0-4"
       x="-0.050387212"
       y="-0.05188147"
       width="1.100664"
       height="1.1037929"><feTurbulence
         numOctaves="7"
         seed="11"
         type="fractalNoise"
         baseFrequency="1.28"
         id="feTurbulence90373-4-4-7-5-0-7-7-4-1-8" /><feGaussianBlur
         stdDeviation="0.5"
         result="result91"
         id="feGaussianBlur90375-0-2-7-2-7-1-1-6-7-7" /><feDisplacementMap
         scale="20"
         yChannelSelector="G"
         xChannelSelector="R"
         in="SourceGraphic"
         result="result1"
         in2="result91"
         id="feDisplacementMap90377-9-1-7-0-5-5-8-1-3-2" /><feComposite
         in="result1"
         in2="SourceGraphic"
         operator="atop"
         id="feComposite90379-0-1-3-0-4-5-5-7-6-0" /></filter><inkscape:path-effect
       effect="roughen"
       id="path-effect90401-2-6-9-7-7-7-2-9-4-0"
       is_visible="true"
       lpeversion="1.2"
       method="size"
       max_segment_size="1.036"
       segments="3"
       displace_x="0.55;1"
       displace_y="0.3;1"
       global_randomize="1.9;269110536"
       handles="along"
       shift_nodes="true"
       fixed_displacement="false"
       spray_tool_friendly="true" /></defs><g
     inkscape:groupmode="layer"
     id="layer13"
     inkscape:label="tronc 3"
     transform="translate(858.35152,-504.916)"><g
       inkscape:groupmode="layer"
       id="layer14"
       inkscape:label="pince"><rect
         style="display:inline;fill:url(#linearGradient101862);fill-opacity:1;stroke:none;stroke-width:6.051;stroke-linecap:round;stroke-linejoin:round;stroke-dasharray:none;stop-color:#000000"
         id="rect92817-4-6-7-0-0"
         width="291.43158"
         height="291.43158"
         x="-858.35156"
         y="504.91602"
         ry="49.878269"
         inkscape:export-filename="iconeNaviForest.png"
         inkscape:export-xdpi="104.58716"
         inkscape:export-ydpi="104.58716" /></g><g
       inkscape:groupmode="layer"
       id="layer15"
       inkscape:label="camion"><path
         style="display:inline;fill:none;stroke:#ffffff;stroke-width:2.99457;stroke-linecap:round;stroke-linejoin:round;stroke-dasharray:none;stroke-opacity:1;filter:url(#filter90381-1-5-6-3-7-4-5-5);stop-color:#000000"
         id="path90341-8-7-6-4-0-6"
         inkscape:path-effect="#path-effect90401-2-6-9-7-7-7-2-9"
         sodipodi:type="arc"
         sodipodi:cx="56.483086"
         sodipodi:cy="188.09473"
         sodipodi:rx="25.898018"
         sodipodi:ry="25.898018"
         d="m 82.485195,188.32184 c 0,0.35757 -0.169156,0.38723 -0.183511,0.74128 -0.07345,0.28641 0.203124,0.88616 0.170905,1.26731 0.215697,0.43746 -0.304523,0.58832 -0.343354,0.90512 -0.287597,0.30154 -0.09816,0.68183 -0.155188,1.02943 -0.06179,0.32693 -0.125346,0.68893 -0.195825,1.0313 -0.07394,0.33373 0.119854,0.72464 0.03773,1.05649 0.181177,0.39212 -0.244315,0.536 -0.341597,0.86908 -0.176306,0.22581 -0.158644,0.91307 -0.280615,1.27071 -0.03109,0.46081 -0.177309,0.55601 -0.279364,0.82467 -0.106697,0.32835 -0.22574,0.65114 -0.358,0.96108 -0.111078,0.33046 -0.179886,0.65288 -0.323375,0.955 -0.05681,0.34685 -0.150722,0.689 -0.309154,0.98989 -0.01123,0.37889 -0.910466,0.26369 -1.081998,0.55843 -0.751915,-0.0519 -0.579407,0.46809 -0.755228,0.74701 -0.409306,0.1654 -0.338077,0.72006 -0.513069,0.97915 -0.154481,0.4217 -0.289155,0.45512 -0.449737,0.67865 -0.171404,0.27068 -0.354198,0.54979 -0.557334,0.81235 -0.165124,0.27642 -0.347701,0.54129 -0.560551,0.79665 -0.15199,0.27808 0.361386,0.5796 0.135402,0.83065 0.46373,0.43702 -0.988945,0.39649 -1.352236,0.74832 -0.544561,-0.10537 -0.343977,0.51806 -0.595295,0.74388 -0.120165,0.29163 -0.498924,0.47248 -0.774349,0.70011 -0.227164,0.21934 -0.507173,0.73086 -0.779364,0.93838 -0.200677,0.47199 -0.467411,0.3301 -0.696919,0.49228 -0.28934,0.18566 -0.716036,0.26478 -0.995797,0.44545 -0.426806,0.0533 -0.70647,0.23271 -0.969763,0.39046 -0.441577,0.0559 -0.716525,0.22659 -0.973452,0.37087 -0.455966,0.0659 -0.881437,0.0936 -1.131037,0.22613 -0.604703,-0.0648 -0.491674,0.21184 -0.710306,0.32443 -0.338716,0.12761 -0.59056,0.2743 -0.874781,0.41399 -0.316659,0.12922 -0.707557,0.23043 -1.003517,0.36732 -0.394839,0.0725 0.05197,0.35505 -0.226522,0.47664 0.156696,0.29797 -0.831437,0.391 -1.320984,0.5587 -0.245935,0.12637 -0.567368,0.24917 -0.927917,0.35005 -0.231632,0.12309 -0.325997,0.43538 -0.70624,0.51759 -0.02885,0.33724 -1.11154,0.0539 -1.60264,0.0994 -0.489447,-0.079 -0.439133,0.21707 -0.718085,0.23852 -0.259995,0.19655 -1.173788,-0.31924 -1.569292,-0.32589 -0.672234,-0.35814 -0.48289,0.0404 -0.687767,0.093 -0.332246,0.0853 -0.393615,0.24179 -0.798211,0.24179 -0.357577,0 -0.887769,-0.0869 -1.242119,-0.10135 -0.468364,-0.0916 -0.54125,0.0207 -0.832894,-9.8e-4 -0.321516,0.0222 -0.770604,-0.0818 -1.133752,-0.12422 -0.371534,-0.0586 -0.709956,-0.0976 -1.039762,-0.14916 -0.37228,-0.0645 -0.861666,-0.23442 -1.18537,-0.29777 -0.47121,-0.17738 -0.772027,-0.15918 -1.032218,-0.21846 -0.49935,-0.10973 -0.974887,-0.30906 -1.224022,-0.3737 -0.639108,-0.23388 -0.413273,-0.30582 -0.578983,-0.35237 -0.361813,-0.29673 -1.085581,-0.56321 -1.362911,-0.65117 -0.647289,-0.43956 -0.822911,-0.17865 -0.945942,-0.21964 -0.711487,-0.14452 -0.253702,-0.0731 -0.388454,-0.12049 -0.306805,-0.0956 -0.645385,-0.0912 -0.960607,-0.21656 -0.331775,0.0111 -0.589092,-0.024 -0.909784,-0.16834 -0.295063,0.0823 -1.040883,-0.70675 -1.390752,-0.887 -0.485266,-0.45601 -0.387823,-0.22177 -0.549716,-0.31025 -0.336015,-0.20121 -0.396089,-0.27678 -0.662992,-0.43764 -0.18295,-0.17165 -0.688396,-0.42225 -1.008869,-0.63956 -0.300733,-0.19731 -0.36827,-0.34006 -0.63319,-0.53841 -0.140736,-0.19897 -0.603502,-0.47187 -0.907277,-0.72698 -0.242207,-0.21211 -0.50149,-0.26987 -0.759197,-0.50917 -0.258263,-0.08 -0.613052,-0.56642 -0.888164,-0.85348 -0.267891,-0.25636 -0.727889,-0.63493 -0.945689,-0.88536 -0.436294,-0.33621 0.02183,-0.33437 -0.13223,-0.52539 0.07414,-0.2913 -0.507832,-0.64024 -0.756487,-0.98747 -0.188542,-0.25703 -0.329558,-0.52574 -0.522464,-0.82371 -0.125253,-0.25584 -0.135168,-0.51992 -0.322559,-0.84157 0.0535,-0.24777 -0.214113,-0.56784 -0.407547,-0.93651 0.0035,-0.21183 -0.683838,-0.98138 -0.862213,-1.35582 -0.405356,-0.45189 -0.164319,-0.38793 -0.252409,-0.58559 -0.120388,-0.30953 -0.537703,-0.67187 -0.665283,-0.99151 -0.375354,-0.31996 0.457776,-0.37722 0.360102,-0.65894 0.521916,-0.25472 -0.243871,-0.6435 -0.391816,-1.09558 -0.0695,-0.15443 -0.740479,-0.80707 -0.863139,-1.21718 -0.571162,-0.29931 -0.267983,-0.57653 -0.334454,-0.8661 -0.184883,-0.34002 0.381645,-0.66042 0.33096,-0.99957 0.465093,-0.35969 -0.246867,-0.74859 -0.315428,-1.12222 -0.187431,-0.3407 -0.57745,-0.75534 -0.627452,-1.0875 -0.51053,-0.423 -0.03797,-0.63404 -0.01282,-0.95121 0.03827,-0.33767 0.244777,-0.63484 0.292268,-0.99053 0.04639,-0.34745 -0.287133,-0.846 -0.287133,-1.20164 0,-0.35757 -0.148855,-0.79616 -0.134243,-1.15012 -0.14259,-0.41325 0.610303,-0.55577 0.636616,-0.8828 0.605864,-0.2599 -0.11482,-0.73648 -0.07108,-1.09551 -0.138446,-0.35795 0.07332,-0.73317 0.128973,-1.07501 0.03522,-0.3688 0.08175,-0.65862 0.146871,-0.98032 0.03715,-0.34285 0.199136,-0.64051 0.279546,-0.96973 0.138742,-0.30763 0.40883,-0.52427 0.50286,-0.85202 0.338055,-0.20348 -0.1906,-0.76509 -0.07918,-1.10198 -0.283048,-0.41757 0.146156,-0.93742 0.270445,-1.26621 0.01106,-0.51731 0.516342,-0.16894 0.617222,-0.41184 0.475351,-0.037 -0.334306,-0.80638 -0.169576,-1.15813 -0.469698,-0.45626 0.06603,-0.77777 0.255503,-1.13391 -0.110403,-0.38061 0.355629,-0.65634 0.546973,-0.97723 0.171908,-0.29507 0.532809,-0.53152 0.720932,-0.81767 0.351824,-0.21533 0.346737,-0.60165 0.533209,-0.86255 0.17621,-0.33092 0.553853,-0.3838 0.750868,-0.63788 0.380002,-0.12896 0.33727,-0.56338 0.552322,-0.82002 0.14193,-0.30068 -0.305785,-0.85746 -0.07557,-1.11119 -0.457671,-0.66001 0.391488,-0.77907 0.7057,-1.08531 0.05802,-0.3983 1.259427,-0.3576 1.537957,-0.60166 0.865615,0.0262 0.398428,-0.17778 0.541747,-0.29811 0.362112,-0.13957 0.601888,-0.33989 0.855164,-0.53814 0.359033,-0.12877 0.827399,-0.25234 1.086996,-0.4423 0.539308,-0.0221 0.535677,-0.27688 0.760724,-0.43365 0.349847,-0.13565 0.547235,-0.35082 0.810488,-0.52415 0.298984,-0.17237 0.749708,-0.29784 1.026457,-0.46908 0.444823,-0.0928 0.947098,0.0239 1.191853,-0.12006 0.681013,0.1917 0.471211,-0.12671 0.690887,-0.25319 0.330919,-0.0416 1.366655,-0.27743 1.665896,-0.44468 0.875271,0.005 0.233261,-0.0334 0.340994,-0.0938 0.322719,-0.0838 0.736987,-0.33655 1.032783,-0.50252 0.39144,-0.1417 0.518446,-0.30853 0.772852,-0.44913 0.28738,-0.17659 0.508963,-0.45353 0.792536,-0.60189 0.223483,-0.29011 0.652286,-0.23943 0.942962,-0.37132 0.363185,-0.0775 0.675229,-0.19893 0.966459,-0.31246 0.389871,-0.0591 0.237738,-0.26817 0.531442,-0.36606 0.04779,-0.17863 0.685287,-0.32481 1.148814,-0.41391 0.219552,-0.1536 0.714227,-0.15107 1.126425,-0.17998 0.312443,-0.0623 0.652412,-0.23448 1.026003,-0.23201 0.363428,0.002 0.799826,0.21679 1.141168,0.21679 0.357577,0 0.805546,0.0736 1.159599,0.0879 0.413652,0.0793 0.575704,0.0263 0.894048,0.0509 0.305843,0.0231 0.807975,0.098 1.175093,0.14213 0.388701,0.0715 0.648126,0.13009 0.966209,0.18043 0.342316,0.1 0.705821,0.21005 1.037449,0.27591 0.353183,0.16031 0.631669,0.12763 0.944733,0.20193 0.330204,0.0745 1.149043,0.42662 1.4752,0.51762 0.640671,0.30546 0.434374,0.116 0.584899,0.16091 0.410674,0.11334 0.53543,0.14076 0.809835,0.23273 0.306608,0.0794 0.627614,0.20229 0.947854,0.32413 0.298785,0.0994 0.626243,0.24325 0.941313,0.37805 0.297447,0.12546 0.681347,0.30437 0.986455,0.44982 0.34081,0.16492 0.4452,0.26591 0.719601,0.40957 0.21182,0.16346 0.338228,0.2385 0.654413,0.42226 0.07032,0.11091 0.45864,0.24016 0.824796,0.47933 0.08367,0.0361 0.866277,0.56713 1.230287,0.83365 0.350137,0.23379 0.450818,0.33337 0.675949,0.51017 0.254954,0.19794 0.399799,0.244 0.654728,0.4609 0.181632,0.0842 0.589477,0.498 0.882063,0.77174 0.235394,0.20534 0.87339,0.64076 1.112937,0.88341 0.523962,0.31559 0.0161,0.18025 0.154618,0.32774 0.01982,0.19525 0.866719,0.72469 1.138921,1.04448 0.457267,0.29096 0.261502,0.21515 0.412125,0.40332 0.192511,0.14644 0.490356,0.70771 0.7167,1.021 0.194014,0.34619 0.439681,0.54256 0.608746,0.79612 0.257864,0.30082 0.330914,0.51236 0.491052,0.77403 0.171575,0.28626 0.482099,0.65744 0.645996,0.95275 0.278213,0.33441 0.267728,0.51382 0.399679,0.77524 0.141902,0.3028 0.370907,0.61949 0.510782,0.93059 0.205132,0.30673 0.269618,0.61424 0.390677,0.91998 0.130782,0.32437 -0.681379,0.3926 -0.571664,0.71142 -0.759309,0.23659 0.337114,0.97137 0.51172,1.46761 0.111372,0.32399 0.122616,0.48558 0.231984,0.80469 0.02767,0.2235 0.34966,0.79385 0.473464,1.17375 0.194095,0.34951 0.512095,0.61412 0.599537,0.91335 0.41084,0.32008 0.118157,0.58644 0.177876,0.88662 0.0282,0.33725 -0.135355,0.66006 -0.0916,1.01119 -0.214009,0.32893 -0.116081,0.72076 -0.05109,1.09525 -0.163924,0.34193 0.0044,0.68266 0.108896,1.04791 0.09873,0.34509 0.466222,0.96096 0.466222,1.29464 z"
         transform="matrix(1.4693485,0,0,1.4693485,-851.12405,383.03843)" /><circle
         style="display:inline;fill:none;stroke:#ffffff;stroke-width:5.02079;stroke-linecap:round;stroke-linejoin:round;stroke-dasharray:none;stroke-opacity:1;stop-color:#000000"
         id="path90403-7-3-0-1-5-7"
         cx="-768.71545"
         cy="659.67395"
         r="35.508766" /><path
         style="display:inline;fill:#ffffff;fill-opacity:1;stroke:#ffffff;stroke-width:3.13564;stroke-dasharray:none;stroke-opacity:1"
         d="m -769.43327,665.90585 c -0.91367,-0.26293 -2.2169,-1.05794 -3.1173,-1.90165 -0.34811,-0.32619 -0.82201,-0.73328 -1.0531,-0.90465 -1.80749,-1.34025 -2.17943,-3.0859 -1.0392,-4.87763 0.36336,-0.57096 0.84662,-1.19097 1.0739,-1.37777 0.22728,-0.18682 0.8831,-0.95027 1.45739,-1.69658 1.32737,-1.72505 2.39182,-2.28526 4.32933,-2.27849 2.67522,0.009 4.34375,1.24029 4.87027,3.59308 0.2381,1.06407 0.22023,1.61649 -0.11095,3.42667 -0.21714,1.18696 -0.60037,2.60928 -0.85158,3.16075 -0.63758,1.39954 -1.90177,2.55467 -3.13601,2.86545 -1.18308,0.2979 -1.35794,0.29724 -2.42275,-0.009 z m 3.00619,-1.60239 c 1.41574,-1.00809 2.33187,-3.51222 2.33187,-6.37379 0,-2.76866 -0.92987,-3.71214 -3.67602,-3.72983 l -1.76567,-0.0114 -0.84009,0.94318 c -4.46463,5.01228 -4.47054,5.02788 -2.59673,6.83393 1.25561,1.21023 3.3393,2.67562 4.09164,2.87757 0.73149,0.19633 1.72946,-0.0231 2.455,-0.53967 z"
         id="path89259-7-8-9-6-0-6" /><path
         style="display:inline;fill:none;fill-opacity:1;stroke:#ffffff;stroke-width:3.13564;stroke-linecap:round;stroke-linejoin:round;stroke-dasharray:none;stroke-opacity:1;stop-color:#000000"
         d="m -763.18546,645.41786 c -8.1976,-0.25619 -14.73008,3.33028 -17.03572,6.02013 -2.30558,2.68985 -3.58644,8.06954 -0.51231,13.06498 3.07408,4.99543 7.17288,10.24703 11.39983,10.11895 4.22689,-0.12809 17.03566,-9.60661 15.37059,-16.65145 -1.66518,-7.04483 -5.50786,-11.656 -9.22239,-12.55261 z"
         id="path97746-2-4-8-2" /><path
         style="display:inline;fill:none;fill-opacity:1;stroke:#ffffff;stroke-width:3.13564;stroke-linecap:round;stroke-linejoin:round;stroke-dasharray:none;stroke-opacity:1;stop-color:#000000"
         d="m -770.87075,638.37302 c -5.50775,0.38426 -19.21316,7.55719 -19.72553,15.37056 -0.51236,7.81336 4.99544,26.89848 13.8335,28.17935 8.83806,1.28089 28.94791,-6.14822 29.71646,-17.67614 0.76849,-11.52792 -4.35504,-23.05584 -9.86279,-24.5929 -5.5078,-1.53706 -9.47857,-1.79322 -13.96164,-1.28087 z"
         id="path97750-7-5-7-6" /><path
         style="display:inline;fill:none;fill-opacity:1;stroke:#ffffff;stroke-width:3.13564;stroke-linecap:round;stroke-linejoin:round;stroke-dasharray:none;stroke-opacity:1;stop-color:#000000"
         d="m -773.68865,630.30347 c -8.58193,2.1775 -25.96868,10.51236 -25.48956,22.15923 0.72397,17.59623 4.9379,28.57318 14.85823,34.07141 15.60451,8.64862 38.04215,-0.38427 42.78141,-12.16837 4.73926,-11.7841 2.43367,-26.12995 -3.33031,-33.55905 -5.76393,-7.42911 -14.60205,-13.83351 -28.81977,-10.50322 z"
         id="path97754-5-1-9-9"
         sodipodi:nodetypes="cssssc" /><g
         id="g103035"
         transform="translate(20)"><path
           style="display:inline;fill:none;stroke:#ffffff;stroke-width:2.99457;stroke-linecap:round;stroke-linejoin:round;stroke-dasharray:none;stroke-opacity:1;filter:url(#filter90381-1-5-6-3-7-4-5-5-0);stop-color:#000000"
           id="path90341-8-7-6-4-0-6-2"
           inkscape:path-effect="#path-effect90401-2-6-9-7-7-7-2-9-4"
           sodipodi:type="arc"
           sodipodi:cx="56.483086"
           sodipodi:cy="188.09473"
           sodipodi:rx="25.898018"
           sodipodi:ry="25.898018"
           d="m 82.73624,188.22721 c 0,0.35757 -0.47566,0.42265 -0.490015,0.7767 -0.129642,0.24533 0.06137,0.81725 0.02692,1.21621 0.07315,0.36075 -0.103933,0.67944 -0.147693,1.02411 -0.0811,0.33279 -0.197815,0.6651 -0.255715,1.00944 -0.160122,0.3132 -0.155393,0.68256 -0.226232,1.02134 -0.102832,0.33058 0.110099,0.77156 0.02827,1.09936 0.175846,0.42741 -0.313035,0.53057 -0.404312,0.84423 -0.248228,0.2401 -0.186455,0.79802 -0.300156,1.13625 -0.07642,0.4015 -0.178983,0.57586 -0.285781,0.85998 -0.09927,0.31812 -0.08535,0.65635 -0.216627,0.96779 0.02299,0.34787 -0.241084,0.67958 -0.390413,0.99625 -0.103397,0.33616 -0.13923,0.66996 -0.292318,0.96377 -0.0075,0.37448 -0.926822,0.38347 -1.096379,0.67815 -0.751707,0.0364 -0.687959,0.33415 -0.841344,0.58242 -0.553024,0.0897 -0.02038,0.53403 -0.188122,0.78841 0.09648,0.33217 -0.411356,0.64015 -0.631295,0.94641 -0.179245,0.27824 -0.359351,0.53034 -0.557969,0.78755 -0.17741,0.26695 -0.330515,0.53365 -0.541683,0.78774 -0.139408,0.27586 -0.264478,0.74197 -0.491944,0.99539 -0.03464,0.45677 -1.189882,0.13112 -1.409322,0.35725 -0.923531,-0.16976 -0.264074,0.33984 -0.426273,0.50031 -0.181864,0.24862 -0.442668,0.4863 -0.686995,0.71312 -0.205015,0.24378 -0.167168,0.60855 -0.415136,0.82381 0.03796,0.40856 -0.627273,0.4554 -0.919311,0.6861 -0.309361,0.17127 -0.665685,0.29486 -0.923035,0.48248 -0.407106,0.0834 -0.687228,0.31146 -0.937812,0.4817 -0.428371,0.11724 -0.590525,0.20935 -0.828166,0.36108 -0.384759,0.0635 -1.021873,0.32126 -1.289555,0.48153 -0.657202,0.087 -0.409291,0.17918 -0.574319,0.27506 -0.348019,0.13909 -0.569353,0.28751 -0.83723,0.43491 -0.316448,0.13553 -1.052298,0.2115 -1.336847,0.35752 -0.666732,-0.003 0.0062,0.40454 -0.174299,0.49513 0.006,0.40127 -0.661949,0.35889 -1.034263,0.5154 -0.25397,0.14204 -0.624452,0.33912 -0.96259,0.45518 -0.286962,0.1852 -0.184848,0.45256 -0.52051,0.53973 0.02535,0.35795 -1.28294,0.12201 -1.802116,0.17165 -0.58923,-0.0454 -0.190776,0.10918 -0.419321,0.12578 -0.138998,0.0974 -1.014108,-0.35224 -1.476541,-0.3507 -0.487378,-0.39174 -0.64267,0.0901 -0.951679,0.18058 -0.331987,0.0972 -0.502888,0.41486 -0.858368,0.41486 -0.357577,0 -0.867837,-0.0534 -1.222093,-0.068 -0.45583,-0.0584 -0.457129,-0.004 -0.755943,-0.0266 -0.254864,-0.004 -0.848784,-0.10462 -1.243294,-0.15329 -0.379756,-0.0749 -0.682336,-0.10166 -1.00616,-0.15431 -0.360853,-0.0686 -1.006552,-0.33001 -1.334186,-0.39654 -0.556907,-0.25881 -0.620163,-0.18932 -0.830169,-0.23744 -0.460033,-0.1609 -0.725466,-0.33123 -0.984909,-0.39919 -0.449307,-0.27183 -0.763985,-0.39399 -1.008551,-0.46571 -0.486385,-0.32422 -0.989343,-0.20202 -1.203175,-0.27066 -0.70266,-0.119 -0.837559,-0.40575 -0.981534,-0.45477 -0.669779,-0.35288 -0.224026,-0.0702 -0.345331,-0.11356 -0.302818,-0.10143 -0.421944,0.19073 -0.735577,0.0643 -0.210281,0.25377 -0.705742,-0.16101 -1.118379,-0.35643 -0.230302,0.0188 -1.614794,-0.4255 -1.976909,-0.62232 -0.93378,-0.0947 -0.189998,-0.11084 -0.254292,-0.14668 -0.345548,-0.1989 -0.535487,-0.24679 -0.808845,-0.41671 -0.291873,-0.12272 -0.678535,-0.43553 -0.983304,-0.64989 -0.320614,-0.22298 -0.445782,-0.13829 -0.70811,-0.34381 -0.250923,-0.0186 -0.664158,-0.53683 -0.99127,-0.83255 -0.251407,-0.2266 -0.230006,-0.29696 -0.489252,-0.56031 -0.02714,-0.13676 -0.731523,-0.72779 -1.047255,-1.09851 -0.280388,-0.27821 -0.431505,-0.58898 -0.635192,-0.85275 -0.207548,-0.33781 -0.06104,-0.45775 -0.250307,-0.72708 0.08868,-0.28304 -0.470184,-0.69645 -0.700685,-1.06226 -0.172054,-0.28361 -0.203668,-0.49845 -0.378873,-0.80235 -0.03473,-0.24638 -0.171468,-0.61153 -0.356836,-0.9652 0.03433,-0.27007 -0.181765,-0.45449 -0.354823,-0.81338 -0.0098,-0.14342 -0.872893,-0.80679 -1.051729,-1.21258 -0.610759,-0.26751 -0.20484,-0.45118 -0.30495,-0.7023 -0.124848,-0.28915 -0.308251,-0.79854 -0.42682,-1.13999 -0.148119,-0.41058 0.290149,-0.47165 0.202553,-0.75613 0.358865,-0.30194 -0.183643,-0.72878 -0.301309,-1.13175 -0.04391,-0.28529 -0.589632,-0.89499 -0.687841,-1.25124 -0.453714,-0.43523 -0.235007,-0.49863 -0.291296,-0.73917 -0.184638,-0.34708 0.169656,-0.57566 0.114447,-0.90481 0.248176,-0.29823 -0.129772,-0.84833 -0.19299,-1.23711 -0.05206,-0.39939 -0.165552,-0.89649 -0.212374,-1.21298 -0.103667,-0.53349 -0.07092,-0.48675 -0.09833,-0.73458 -0.03717,-0.32172 0.0736,-0.69914 0.05617,-1.07326 -0.0158,-0.33921 -0.243874,-0.75808 -0.243874,-1.13582 0,-0.35758 -0.242904,-0.77272 -0.228453,-1.12672 -0.23628,-0.40026 0.428418,-0.37591 0.455784,-0.71325 0.429326,-0.13376 -0.104879,-0.91112 -0.04801,-1.34321 -0.141838,-0.3791 -0.04378,-0.72402 0.0144,-1.06117 -0.08221,-0.38022 0.117017,-0.68809 0.188302,-1.02039 0.06562,-0.35002 0.217147,-0.61272 0.301607,-0.94122 0.15572,-0.29122 0.320795,-0.56047 0.422578,-0.89779 0.242924,-0.22653 -0.04772,-0.7209 0.07154,-1.0639 -0.14667,-0.3673 -0.09905,-0.93649 0.03371,-1.27156 -0.230576,-0.54197 0.435179,-0.53633 0.558647,-0.81619 0.33411,-0.26376 0.151032,-1.00974 0.292162,-1.2988 -0.01335,-0.63049 0.181864,-0.48033 0.289004,-0.6845 0.128414,-0.35683 0.303398,-0.57759 0.467005,-0.86024 0.165556,-0.29887 0.466126,-0.33361 0.650856,-0.623 0.325465,-0.0717 0.428199,-0.66849 0.653685,-0.98782 0.192146,-0.28679 0.589047,-0.30425 0.7923,-0.56915 0.414732,-0.0445 0.382988,-0.58225 0.610286,-0.85589 0.161327,-0.28312 -0.342584,-0.55139 -0.116019,-0.80424 -0.441177,-0.41279 0.564138,-0.91067 0.932306,-1.27051 0.109986,-0.39633 1.184409,-0.32578 1.436726,-0.55132 0.839545,0.0125 0.512686,-0.10697 0.657264,-0.23117 0.458963,-0.0534 0.554569,-0.32345 0.791511,-0.51574 0.338896,-0.13184 0.61192,-0.25938 0.867584,-0.45509 0.370119,-0.0569 0.586979,-0.36161 0.85342,-0.55455 0.320118,-0.152 0.542643,-0.3712 0.805635,-0.55148 0.289476,-0.1825 0.925823,-0.0292 1.196585,-0.20405 0.62666,0.18004 0.665138,-0.17966 0.901903,-0.32801 0.445611,-0.0351 1.092974,-0.25324 1.345486,-0.40732 0.739515,-0.031 0.771761,-0.10743 0.921757,-0.19859 0.655276,-0.036 0.449622,-0.21836 0.630704,-0.32928 0.350147,-0.15851 0.679813,-0.2707 0.939891,-0.42978 0.404488,-0.10095 0.484404,-0.31826 0.734733,-0.46987 0.257719,-0.17754 0.466585,-0.37089 0.74799,-0.53249 0.196045,-0.20044 0.784469,-0.20117 1.088542,-0.35481 0.447046,0.002 0.61125,-0.20078 0.87344,-0.32317 0.37041,-0.0715 0.143723,-0.5283 0.427905,-0.64737 -0.04748,-0.42514 0.736072,-0.32439 1.191496,-0.40719 0.286193,-0.11743 0.705989,-0.13812 1.089506,-0.16081 0.340164,-0.0587 0.637059,-0.19271 0.998838,-0.18628 0.356005,0.006 0.782253,0.19119 1.13432,0.19119 0.357577,0 0.772395,0.0523 1.126448,0.0667 0.39211,0.0586 0.564813,0.009 0.894562,0.035 0.284037,0.006 0.95229,0.12175 1.33139,0.16848 0.468515,0.0877 0.581155,0.12948 0.859885,0.17312 0.35107,0.1075 0.750802,0.26875 1.078209,0.33305 0.385658,0.21682 0.585376,0.11948 0.877888,0.18745 0.327111,0.0754 1.109688,0.38691 1.437085,0.47661 0.615059,0.27213 0.351959,0.14789 0.518628,0.19713 0.328126,0.14626 0.525169,0.15972 0.831111,0.26258 0.252814,0.0872 0.649894,0.22601 0.990659,0.35692 0.282156,0.10977 0.613366,0.24787 0.931744,0.38529 0.281751,0.1279 0.697043,0.32003 1.005895,0.46845 0.343863,0.17349 0.485024,0.21709 0.754565,0.35885 0.254114,0.11441 0.469415,0.19341 0.778258,0.37317 0.186844,0.0556 0.630421,0.23238 0.967881,0.45153 0.260257,0.0272 0.767064,0.48007 1.078312,0.70395 0.362633,0.22281 0.454519,0.32288 0.681734,0.49897 0.258843,0.19073 0.180169,0.25967 0.439414,0.47865 -0.0045,0.13166 0.666776,0.57907 0.999968,0.89286 0.226285,0.21482 0.645266,0.80226 0.884497,1.04615 0.30546,0.4847 0.217956,0.15188 0.365313,0.30942 0.18205,0.12474 0.803051,0.69552 1.055621,0.99036 0.436367,0.3065 -0.05187,0.19836 0.09894,0.38508 -0.08031,0.17976 1.059877,0.71403 1.325745,1.07859 0.642305,0.19784 0.294705,0.4255 0.426391,0.61891 0.202396,0.31009 0.33683,0.52403 0.505329,0.79643 0.162511,0.28219 0.52872,0.61449 0.695882,0.91487 0.322095,0.29201 0.274204,0.51947 0.410128,0.79166 0.139588,0.29543 0.382667,0.65123 0.52278,0.97049 0.209653,0.32115 0.268386,0.6108 0.384554,0.91392 0.135377,0.32807 -0.122977,0.50132 -0.01744,0.82192 -0.227492,0.26078 0.261509,0.80518 0.38055,1.20976 0.101659,0.33338 0.06139,0.62181 0.147424,0.94706 -0.03197,0.32343 0.190828,0.72721 0.276217,1.07684 0.08937,0.35717 0.161552,0.70273 0.232232,1.02484 0.07845,0.38029 0.07554,0.6198 0.135652,0.93594 0.0069,0.33464 -0.09082,0.57618 -0.03253,0.92619 -0.157051,0.26183 -0.153344,0.52938 -0.06858,0.93599 -0.223388,0.13565 0.235053,0.85727 0.372365,1.31673 0.108349,0.36256 0.568458,0.85185 0.568458,1.1506 z"
           transform="matrix(1.4693485,0,0,1.4693485,-758.46658,381.79795)" /><circle
           style="display:inline;fill:none;stroke:#ffffff;stroke-width:5.02079;stroke-linecap:round;stroke-linejoin:round;stroke-dasharray:none;stroke-opacity:1;stop-color:#000000"
           id="path90403-7-3-0-1-5-7-5"
           cx="-676.05798"
           cy="658.43347"
           r="35.508766" /><path
           style="display:inline;fill:#ffffff;fill-opacity:1;stroke:#ffffff;stroke-width:3.13564;stroke-dasharray:none;stroke-opacity:1"
           d="m -676.7758,664.66537 c -0.91367,-0.26293 -2.2169,-1.05794 -3.1173,-1.90165 -0.34811,-0.32619 -0.82201,-0.73328 -1.0531,-0.90465 -1.80749,-1.34025 -2.17943,-3.0859 -1.0392,-4.87763 0.36336,-0.57096 0.84662,-1.19097 1.0739,-1.37777 0.22728,-0.18682 0.8831,-0.95027 1.45739,-1.69658 1.32737,-1.72505 2.39182,-2.28526 4.32933,-2.27849 2.67522,0.009 4.34375,1.24029 4.87027,3.59308 0.2381,1.06407 0.22023,1.61649 -0.11095,3.42667 -0.21714,1.18696 -0.60037,2.60928 -0.85158,3.16075 -0.63758,1.39954 -1.90177,2.55467 -3.13601,2.86545 -1.18308,0.2979 -1.35794,0.29724 -2.42275,-0.009 z m 3.00619,-1.60239 c 1.41574,-1.00809 2.33187,-3.51222 2.33187,-6.37379 0,-2.76866 -0.92987,-3.71214 -3.67602,-3.72983 l -1.76567,-0.0114 -0.84009,0.94318 c -4.46463,5.01228 -4.47054,5.02788 -2.59673,6.83393 1.25561,1.21023 3.3393,2.67562 4.09164,2.87757 0.73149,0.19633 1.72946,-0.023 2.455,-0.53967 z"
           id="path89259-7-8-9-6-0-6-3" /><path
           style="display:inline;fill:none;fill-opacity:1;stroke:#ffffff;stroke-width:3.13564;stroke-linecap:round;stroke-linejoin:round;stroke-dasharray:none;stroke-opacity:1;stop-color:#000000"
           d="m -670.52799,644.17738 c -8.1976,-0.25619 -14.73008,3.33028 -17.03572,6.02013 -2.30558,2.68985 -3.58644,8.06954 -0.51231,13.06498 3.07408,4.99543 7.17288,10.24703 11.39983,10.11895 4.22689,-0.12809 17.03566,-9.60661 15.37059,-16.65145 -1.66518,-7.04483 -5.50786,-11.656 -9.22239,-12.55261 z"
           id="path97746-2-4-8-2-9" /><path
           style="display:inline;fill:none;fill-opacity:1;stroke:#ffffff;stroke-width:3.13564;stroke-linecap:round;stroke-linejoin:round;stroke-dasharray:none;stroke-opacity:1;stop-color:#000000"
           d="m -678.21328,637.13254 c -5.50775,0.38426 -19.21316,7.55719 -19.72553,15.37056 -0.51236,7.81336 4.99544,26.89848 13.8335,28.17935 8.83806,1.28089 28.94791,-6.14822 29.71646,-17.67614 0.76849,-11.52792 -4.35504,-23.05584 -9.86279,-24.5929 -5.5078,-1.53706 -9.47857,-1.79322 -13.96164,-1.28087 z"
           id="path97750-7-5-7-6-3" /><path
           style="display:inline;fill:none;fill-opacity:1;stroke:#ffffff;stroke-width:3.13564;stroke-linecap:round;stroke-linejoin:round;stroke-dasharray:none;stroke-opacity:1;stop-color:#000000"
           d="m -681.03118,629.06299 c -8.58193,2.1775 -25.96868,10.51236 -25.48956,22.15923 0.72397,17.59623 4.9379,28.57318 14.85823,34.07141 15.60451,8.64862 38.04215,-0.38427 42.78141,-12.16837 4.73926,-11.7841 2.43367,-26.12995 -3.33031,-33.55905 -5.76393,-7.42911 -14.60205,-13.83351 -28.81977,-10.50322 z"
           id="path97754-5-1-9-9-8"
           sodipodi:nodetypes="cssssc" /></g><g
         id="g103043"
         transform="translate(10,10)"><path
           style="display:inline;fill:none;stroke:#ffffff;stroke-width:2.99457;stroke-linecap:round;stroke-linejoin:round;stroke-dasharray:none;stroke-opacity:1;filter:url(#filter90381-1-5-6-3-7-4-5-5-0-4);stop-color:#000000"
           id="path90341-8-7-6-4-0-6-2-1"
           inkscape:path-effect="#path-effect90401-2-6-9-7-7-7-2-9-4-0"
           sodipodi:type="arc"
           sodipodi:cx="56.483086"
           sodipodi:cy="188.09473"
           sodipodi:rx="25.898018"
           sodipodi:ry="25.898018"
           d="m 82.556631,188.27953 c 0,0.35758 -0.31729,0.40251 -0.331645,0.75656 -0.150424,0.26622 0.632061,0.90131 0.599094,1.28919 0.643865,0.45561 -0.327485,0.51668 -0.369576,0.84976 -0.31269,0.23465 -0.209823,0.74586 -0.276638,1.13045 -0.162721,0.31581 -0.140855,0.67532 -0.214983,1.01793 -0.08723,0.32514 -0.119534,0.81803 -0.206969,1.15518 -0.04076,0.42946 -0.498527,0.44734 -0.58453,0.73638 -0.440968,0.19755 -0.134711,0.89729 -0.246671,1.22625 -0.01725,0.4892 -0.162509,0.52726 -0.257965,0.78155 -0.100701,0.32653 -0.164227,0.63258 -0.29333,0.94014 -0.05625,0.32568 -0.252461,0.69515 -0.397706,1.00578 -0.115437,0.35351 -0.222665,0.58739 -0.368443,0.87097 -0.102458,0.31431 -0.580803,0.58564 -0.748433,0.8817 -0.40803,0.23863 -0.309706,0.31451 -0.462819,0.56515 -0.215052,0.13146 -0.305261,0.9095 -0.518098,1.227 -0.05484,0.49245 -0.289171,0.46254 -0.451885,0.68889 -0.171437,0.27529 -0.377638,0.58645 -0.584979,0.8519 -0.179305,0.29979 -0.28169,0.51977 -0.4922,0.76859 -0.10683,0.28348 -6.56e-4,1.03738 -0.244432,1.3009 0.244352,0.73742 -0.858277,0.081 -1.095037,0.31274 -0.640067,-0.16699 -0.39216,0.47816 -0.639412,0.70133 -0.174761,0.25472 -0.51134,0.48387 -0.785249,0.71004 -0.240588,0.23 -0.402037,0.54281 -0.672601,0.74776 -0.153043,0.32752 -0.566499,0.41457 -0.855,0.61289 -0.282884,0.19046 -0.629538,0.37496 -0.916532,0.55446 -0.338921,0.16742 -0.566197,0.19026 -0.843104,0.34878 -0.328708,0.0329 -0.765669,0.29802 -1.079399,0.46197 -0.413868,0.0913 -0.90775,0.083 -1.175589,0.2132 -0.601707,-0.0803 -0.47506,0.18282 -0.698734,0.28735 -0.328033,0.10768 -0.611609,0.2703 -0.912156,0.40282 -0.316101,0.1278 -0.890379,0.13933 -1.196219,0.26494 -0.52804,-0.0236 0.145208,0.49201 -0.09955,0.58909 0.179245,0.47295 -0.887802,0.41681 -1.377934,0.56322 -0.286052,0.17044 -0.647917,0.20378 -0.995175,0.28471 -0.313112,0.0934 -0.505381,0.40057 -0.857146,0.46242 -0.204763,0.31905 -0.83721,0.0343 -1.24811,0.0629 -0.380124,-0.0553 -0.397302,0.0761 -0.732341,0.0887 -0.142329,0.0514 -0.971967,-0.0599 -1.429861,-0.0614 -0.442957,-0.08 -0.637599,0.0173 -0.938878,0.0311 -0.367947,0.0169 -0.250348,0.10315 -0.598202,0.10315 -0.357577,0 -0.876258,-0.0697 -1.230891,-0.0842 -0.461337,-0.0746 -0.379514,0.0251 -0.675911,0.003 -0.208089,0.0227 -0.891296,-0.12974 -1.311327,-0.18185 -0.373799,-0.0968 -0.684998,-0.10446 -1.011788,-0.15762 -0.359773,-0.0706 -1.306814,-0.29186 -1.636511,-0.35858 -0.763321,-0.20168 -0.551392,-0.16517 -0.672578,-0.19147 -0.53814,-0.16498 -0.655478,-0.12427 -0.882837,-0.17999 -0.466659,-0.0876 -0.712491,-0.22414 -0.978332,-0.29834 -0.44269,-0.16259 -0.578519,-0.61878 -0.842177,-0.70159 -0.308547,-0.54803 -0.533365,-0.48845 -0.792896,-0.57873 -0.287558,-0.41633 -0.541433,-0.17608 -0.816196,-0.28153 -0.301984,-0.0993 -0.339151,-0.23764 -0.650012,-0.37047 -0.09422,-0.15378 -0.519056,-0.0715 -0.896108,-0.25383 -0.149542,0.0744 -0.925617,-0.6228 -1.31514,-0.83652 -0.355155,-0.34913 -0.487873,-0.27033 -0.711009,-0.40144 -0.30994,-0.17908 -0.351194,-0.25008 -0.61914,-0.42104 -0.140999,-0.13682 -0.714184,-0.44737 -1.039819,-0.67694 -0.305485,-0.19312 -0.06387,-0.11963 -0.316027,-0.31189 0.05617,-0.0505 -0.745394,-0.59492 -1.125295,-0.92074 -0.222835,-0.20341 -0.260133,-0.3852 -0.513848,-0.62082 -0.03818,-0.20702 -0.615175,-0.57193 -0.902859,-0.86374 -0.250095,-0.24003 -0.458003,-0.58864 -0.676751,-0.8266 -0.21098,-0.34487 -0.380124,-0.41944 -0.574807,-0.64493 -0.202751,-0.2353 -0.425853,-0.47037 -0.638813,-0.73579 -0.202721,-0.22171 -0.414668,-0.51762 -0.621163,-0.79586 -0.189906,-0.24765 -0.180707,-0.5152 -0.373658,-0.79683 0.0053,-0.27785 -0.28061,-0.50086 -0.485034,-0.82454 -0.06448,-0.19887 -0.93923,-0.92826 -1.137649,-1.27017 -0.614057,-0.4121 -0.14714,-0.25452 -0.229649,-0.40487 -0.146294,-0.2658 -0.488369,-0.63369 -0.642098,-0.95007 -0.29398,-0.29375 -0.05533,-0.50052 -0.177475,-0.78869 0.06147,-0.28682 0.07926,-0.4304 -0.05458,-0.79502 0.214415,-0.14495 -0.389227,-0.97321 -0.540597,-1.42888 -0.169137,-0.38303 -0.253772,-0.61059 -0.340937,-0.89998 -0.161291,-0.34837 -0.02268,-0.52923 -0.103039,-0.84161 0.06238,-0.27836 -0.293823,-0.826 -0.381691,-1.20587 -0.176434,-0.38775 -0.507539,-0.65079 -0.561027,-0.95511 -0.434221,-0.37799 -0.03647,-0.66377 -0.02279,-0.99603 0.04751,-0.3442 0.196232,-0.67741 0.225142,-1.03321 0.02845,-0.35009 -0.123191,-0.78318 -0.123191,-1.14151 0,-0.35758 -0.08783,-0.77333 -0.07345,-1.12732 -0.08142,-0.3964 0.502645,-0.52042 0.529189,-0.85337 0.499296,-0.23173 -0.07384,-0.77959 -0.02745,-1.1574 -0.100741,-0.35981 0.0073,-0.72731 0.06247,-1.06617 -0.0298,-0.37324 0.08473,-0.65975 0.150744,-0.9855 0.03931,-0.33858 0.20939,-0.65646 0.290555,-0.98844 0.146886,-0.31451 0.448833,-0.48521 0.541709,-0.80958 0.38133,-0.1774 0.169095,-0.79058 0.282281,-1.13336 0.05899,-0.38777 -0.0042,-0.85257 0.101685,-1.13959 -0.106735,-0.52871 0.375213,-0.3237 0.477852,-0.57664 0.319533,-0.15136 -0.218058,-0.83629 -0.0668,-1.16875 -0.352291,-0.4862 0.199758,-0.79258 0.361977,-1.11077 0.03752,-0.42184 0.28604,-0.55405 0.438073,-0.82513 0.163123,-0.29706 0.398098,-0.36252 0.575682,-0.64958 0.26519,-0.10641 0.302958,-0.71296 0.522424,-1.03299 0.08004,-0.3395 0.665865,-0.45836 0.870976,-0.73188 0.455803,-0.14215 0.333599,-0.51152 0.524438,-0.74841 0.172827,-0.2867 0.116361,-0.69526 0.334653,-0.94592 -0.07028,-0.45185 0.254959,-0.62688 0.502744,-0.88645 0.03311,-0.35899 0.889161,-0.36433 1.158223,-0.61957 0.575579,-0.0291 0.455074,-0.31535 0.665376,-0.50235 0.295502,-0.15527 0.550027,-0.42117 0.810147,-0.6357 0.293688,-0.18542 0.555097,-0.28151 0.813766,-0.47996 0.32143,-0.0805 0.660596,-0.3836 0.940841,-0.58358 0.36053,-0.14747 0.516933,-0.34663 0.771146,-0.51695 0.28792,-0.17684 0.919154,-0.0437 1.196526,-0.21696 0.610741,0.16751 1.032668,-0.26734 1.272135,-0.41123 0.709151,-0.0643 0.537931,0.0839 0.689868,-0.006 0.502896,0.10675 0.656692,-0.16698 0.922295,-0.32282 0.400954,-0.0143 0.720112,-0.24034 0.997197,-0.40175 0.42179,-0.064 0.552817,-0.21117 0.810775,-0.3602 0.323553,-0.076 0.571358,-0.34843 0.861063,-0.51208 0.272833,-0.1728 0.46949,-0.38759 0.75531,-0.53965 0.199441,-0.2286 0.73141,-0.23962 1.039743,-0.38303 0.400154,-0.0544 0.6624,-0.18639 0.938036,-0.30141 0.399211,-0.0559 0.344504,-0.45227 0.627502,-0.55828 0.12731,-0.35093 0.630486,-0.30964 1.014954,-0.38775 0.266347,-0.14989 0.655382,-0.11893 1.044545,-0.14324 0.286088,-0.0284 0.545546,-0.0507 0.934176,-0.0514 0.360204,-6.2e-4 0.917705,0.0259 1.262015,0.0259 0.357577,0 0.796074,0.0225 1.150127,0.0368 0.408663,0.0284 0.626391,0.005 0.949135,0.0297 0.335311,6e-5 0.825762,0.11269 1.180839,0.15525 0.417197,0.0863 0.628379,0.0956 0.932954,0.14319 0.350469,0.0689 0.6766,0.18434 1.008629,0.24979 0.335848,0.13768 0.657204,0.13334 0.982695,0.21077 0.331603,0.076 1.462412,0.58312 1.789811,0.67488 0.842795,0.43057 0.254587,0.0846 0.29774,0.097 0.43492,0.13653 0.476111,0.14078 0.738036,0.2247 0.283223,0.0928 0.647692,0.21301 0.9778,0.334 0.298558,0.10842 0.622107,0.2213 0.937545,0.35174 0.297454,0.1098 0.693791,0.30486 1.003786,0.44838 0.343661,0.16634 0.483237,0.21047 0.758438,0.35079 0.248641,0.11071 0.367162,0.28764 0.683688,0.46758 0.08683,0.15693 0.633931,0.20509 0.989116,0.43213 0.242608,-0.006 0.710693,0.4674 1.037388,0.70037 0.298796,0.21113 0.50056,0.36483 0.751869,0.55964 0.254665,0.19832 0.19587,0.22585 0.455195,0.44509 0.01437,0.10065 0.679882,0.58387 1.016082,0.9017 0.232291,0.21331 0.991994,0.81679 1.230576,1.06125 0.595571,0.43995 -0.08828,0.0417 0.0032,0.13858 0.02267,0.16397 0.751053,0.75374 1.031689,1.08311 0.339423,0.3217 0.222629,0.23935 0.389362,0.4484 0.130385,0.14457 0.55055,0.86182 0.787298,1.19057 0.20767,0.43658 0.330559,0.46452 0.476995,0.68136 0.205971,0.30122 0.341675,0.52474 0.509723,0.79469 0.168765,0.28062 0.356533,0.61633 0.523468,0.90991 0.164655,0.31974 0.249354,0.54594 0.398,0.83211 0.09695,0.29247 0.369924,0.65764 0.519069,0.97494 0.188959,0.32177 0.283169,0.5921 0.407696,0.8857 0.146907,0.31776 -0.413834,0.32962 -0.296836,0.64011 -0.493579,0.17556 0.366424,0.9347 0.54156,1.41812 0.129059,0.31415 -0.02762,0.47467 0.08133,0.79365 -0.120872,0.23181 0.358073,0.83138 0.491154,1.23172 0.190511,0.3495 0.319666,0.70426 0.410126,1.00274 0.212823,0.3963 0.154538,0.56051 0.225219,0.84032 0.07629,0.33535 -0.203965,0.55085 -0.139168,0.88717 -0.288421,0.27069 -0.02664,0.67856 0.08569,1.09541 -0.11849,0.23734 0.06246,0.68874 0.188817,1.08625 0.111821,0.35179 0.567687,0.96149 0.567687,1.27327 z"
           transform="matrix(1.4693485,0,0,1.4693485,-807.84201,317.30184)" /><circle
           style="display:inline;fill:none;stroke:#ffffff;stroke-width:5.02079;stroke-linecap:round;stroke-linejoin:round;stroke-dasharray:none;stroke-opacity:1;stop-color:#000000"
           id="path90403-7-3-0-1-5-7-5-0"
           cx="-725.43341"
           cy="593.93738"
           r="35.508766" /><path
           style="display:inline;fill:#ffffff;fill-opacity:1;stroke:#ffffff;stroke-width:3.13564;stroke-dasharray:none;stroke-opacity:1"
           d="m -726.15123,600.16926 c -0.91367,-0.26293 -2.2169,-1.05794 -3.1173,-1.90165 -0.34811,-0.32619 -0.82201,-0.73328 -1.0531,-0.90465 -1.80749,-1.34025 -2.17943,-3.0859 -1.0392,-4.87763 0.36336,-0.57096 0.84662,-1.19097 1.0739,-1.37777 0.22728,-0.18682 0.8831,-0.95027 1.45739,-1.69658 1.32737,-1.72505 2.39182,-2.28526 4.32933,-2.27849 2.67522,0.009 4.34375,1.24029 4.87027,3.59308 0.2381,1.06407 0.22023,1.61649 -0.11095,3.42667 -0.21714,1.18696 -0.60037,2.60928 -0.85158,3.16075 -0.63758,1.39954 -1.90177,2.55467 -3.13601,2.86545 -1.18308,0.2979 -1.35794,0.29724 -2.42275,-0.009 z m 3.00619,-1.60239 c 1.41574,-1.00809 2.33187,-3.51222 2.33187,-6.37379 0,-2.76866 -0.92987,-3.71214 -3.67602,-3.72983 l -1.76567,-0.0114 -0.84009,0.94318 c -4.46463,5.01228 -4.47054,5.02788 -2.59673,6.83393 1.25561,1.21023 3.3393,2.67562 4.09164,2.87757 0.73149,0.19633 1.72946,-0.0231 2.455,-0.53967 z"
           id="path89259-7-8-9-6-0-6-3-1" /><path
           style="display:inline;fill:none;fill-opacity:1;stroke:#ffffff;stroke-width:3.13564;stroke-linecap:round;stroke-linejoin:round;stroke-dasharray:none;stroke-opacity:1;stop-color:#000000"
           d="m -719.90342,579.68127 c -8.1976,-0.25619 -14.73008,3.33028 -17.03572,6.02013 -2.30558,2.68985 -3.58644,8.06954 -0.51231,13.06498 3.07408,4.99543 7.17288,10.24703 11.39983,10.11895 4.22689,-0.12809 17.03566,-9.60661 15.37059,-16.65145 -1.66518,-7.04483 -5.50786,-11.656 -9.22239,-12.55261 z"
           id="path97746-2-4-8-2-9-8" /><path
           style="display:inline;fill:none;fill-opacity:1;stroke:#ffffff;stroke-width:3.13564;stroke-linecap:round;stroke-linejoin:round;stroke-dasharray:none;stroke-opacity:1;stop-color:#000000"
           d="m -727.58871,572.63643 c -5.50775,0.38426 -19.21316,7.55719 -19.72553,15.37056 -0.51236,7.81336 4.99544,26.89848 13.8335,28.17935 8.83806,1.28089 28.94791,-6.14822 29.71646,-17.67614 0.76849,-11.52792 -4.35504,-23.05584 -9.86279,-24.5929 -5.5078,-1.53706 -9.47857,-1.79322 -13.96164,-1.28087 z"
           id="path97750-7-5-7-6-3-4" /><path
           style="display:inline;fill:none;fill-opacity:1;stroke:#ffffff;stroke-width:3.13564;stroke-linecap:round;stroke-linejoin:round;stroke-dasharray:none;stroke-opacity:1;stop-color:#000000"
           d="m -730.40661,564.56688 c -8.58193,2.1775 -25.96868,10.51236 -25.48956,22.15923 0.72397,17.59623 4.9379,28.57318 14.85823,34.07141 15.60451,8.64862 38.04215,-0.38427 42.78141,-12.16837 4.73926,-11.7841 2.43367,-26.12995 -3.33031,-33.55905 -5.76393,-7.42911 -14.60205,-13.83351 -28.81977,-10.50322 z"
           id="path97754-5-1-9-9-8-1"
           sodipodi:nodetypes="cssssc" /></g><g
         id="g103009"
         transform="translate(-4.9260539,0.257545)"><path
           style="fill:#ffffff;fill-opacity:1;stroke:none;stroke-width:4.18693;stroke-linecap:round;stroke-linejoin:round;stroke-dasharray:none;stroke-opacity:1;stop-color:#000000"
           d="m -795.63333,724.02936 v -5.262 h 88.16173 88.16176 v 5.262 5.26199 h -88.16176 -88.16173 z"
           id="path102136" /><path
           style="fill:#ffffff;fill-opacity:1;stroke:none;stroke-width:4.18693;stroke-linecap:round;stroke-linejoin:round;stroke-dasharray:none;stroke-opacity:1;stop-color:#000000"
           d="m -805.23419,709.16648 v -9.23158 h 97.1164 97.11637 v 9.23158 9.2316 h -97.11637 -97.1164 z m 23.81752,3.50801 v -3.50801 h -10.3394 -10.3394 v 3.50801 3.50802 h 10.3394 10.3394 z m 167.23444,0.0462 -0.0502,-3.46188 -10.38551,-0.0477 -10.38558,-0.0477 v 3.50955 3.50952 h 10.4358 10.43579 z"
           id="path102138" /><path
           style="fill:#ffffff;fill-opacity:1;stroke:none;stroke-width:4.18693;stroke-linecap:round;stroke-linejoin:round;stroke-dasharray:none;stroke-opacity:1;stop-color:#000000"
           d="m -766.55381,772.13731 c -2.10117,-0.34791 -4.04899,-1.37903 -5.40236,-2.85983 -1.05744,-1.15698 -1.55006,-2.08233 -2.02207,-3.79824 -0.29931,-1.08818 -0.33011,-2.19024 -0.33011,-11.81644 v -10.61633 h 9.9701 9.97013 l -1.1e-4,10.98558 c -9e-5,12.36827 0.0309,12.05262 -1.40558,14.20417 -1.72681,2.58595 -4.19737,3.83265 -7.8805,3.97669 -1.08696,0.0425 -2.3918,0.009 -2.8995,-0.0756 z"
           id="path102140" /><path
           style="fill:#ffffff;fill-opacity:1;stroke:none;stroke-width:4.18693;stroke-linecap:round;stroke-linejoin:round;stroke-dasharray:none;stroke-opacity:1;stop-color:#000000"
           d="m -787.50954,772.19339 c -0.82477,-0.10669 -2.85461,-0.75894 -3.69265,-1.18655 -1.97553,-1.00793 -3.94317,-3.95697 -4.25497,-6.37712 -0.0903,-0.70054 -0.16678,-5.86485 -0.17019,-11.47623 l -0.005,-10.20251 10.01627,0.0477 10.01625,0.0477 0.0491,9.87781 c 0.0272,5.43279 -0.0266,10.57098 -0.11891,11.41822 -0.22406,2.05504 -1.14823,3.96188 -2.59143,5.34709 -1.15811,1.11162 -1.90944,1.5476 -3.57693,2.07563 -1.14693,0.36323 -4.32055,0.60285 -5.67056,0.42816 z"
           id="path102142" /><path
           style="fill:#ffffff;fill-opacity:1;stroke:none;stroke-width:4.18693;stroke-linecap:round;stroke-linejoin:round;stroke-dasharray:none;stroke-opacity:1;stop-color:#000000"
           d="m -729.99669,755.54812 c -1.1366,-0.39561 -1.6016,-0.71497 -2.37659,-1.63246 -1.14146,-1.35124 -1.22371,-1.80292 -1.22371,-6.71871 v -4.42743 h -32.67988 -32.67987 v -6.55444 -6.55444 h 91.20819 91.2082 v 6.55444 6.55444 h -32.38933 -32.38928 l -0.0126,4.38501 c -0.007,2.41173 -0.0932,4.6639 -0.19103,5.00477 -0.31358,1.09177 -1.60195,2.55085 -2.7504,3.11488 l -1.0424,0.51189 -21.8789,0.0419 c -20.37738,0.039 -21.9422,0.0196 -22.80201,-0.2796 z m 46.20699,-19.7485 -0.0491,-5.30816 h -23.54054 -23.54058 l -0.0489,5.30816 -0.0489,5.30817 h 23.63854 23.63853 z m -76.39431,-0.0462 v -5.16971 h -17.44772 -17.44772 v 5.16971 5.16969 h 17.44772 17.44772 z m 138.98462,0.0462 -0.0491,-5.12352 -17.40159,-0.0471 -17.40155,-0.0471 v 5.17065 5.17064 h 17.45067 17.45063 z"
           id="path102144" /><path
           style="fill:#ffffff;fill-opacity:1;stroke:none;stroke-width:4.18693;stroke-linecap:round;stroke-linejoin:round;stroke-dasharray:none;stroke-opacity:1;stop-color:#000000"
           d="m -652.17431,772.19035 c -0.87347,-0.11712 -2.804,-0.71582 -3.5481,-1.1003 -1.7406,-0.89927 -3.39568,-2.89982 -4.0913,-4.94535 -0.37087,-1.09038 -0.38342,-1.48432 -0.38771,-12.11265 l -0.005,-10.98558 h 9.9701 9.97013 v 10.80094 c 0,10.64146 -0.005,10.8193 -0.40751,12.04114 -0.5695,1.73299 -0.88628,2.28554 -1.96963,3.43539 -1.83538,1.94805 -3.81821,2.77111 -6.94676,2.88344 -1.06626,0.0385 -2.22947,0.0304 -2.58485,-0.018 z"
           id="path102146" /><path
           style="fill:#ffffff;fill-opacity:1;stroke:none;stroke-width:4.18693;stroke-linecap:round;stroke-linejoin:round;stroke-dasharray:none;stroke-opacity:1;stop-color:#000000"
           d="m -630.75704,772.13664 c -2.14935,-0.31854 -4.20919,-1.40664 -5.55698,-2.93542 -0.87937,-0.99742 -1.28355,-1.73571 -1.81669,-3.31832 -0.3737,-1.10934 -0.38255,-1.42459 -0.33619,-11.98791 l 0.0477,-10.84852 9.93322,-0.0479 9.93323,-0.0477 -0.0655,11.218 c -0.0732,12.53369 -0.02,12.00313 -1.41278,14.05432 -1.76811,2.60366 -4.15575,3.83043 -7.74922,3.98146 -1.07867,0.0452 -2.41819,0.0144 -2.97673,-0.068 z"
           id="path102148" /><path
           style="fill:#ff0023;fill-opacity:1;stroke:none;stroke-width:24.8788;stroke-linecap:round;stroke-linejoin:round;stroke-dasharray:none;stroke-opacity:1;stop-color:#000000"
           d="m -3004.9169,2780.5629 v -19.199 h 65.8251 65.8252 v 19.199 19.199 h -65.8252 -65.8251 z"
           id="path102993"
           transform="scale(0.26458333)" /><path
           style="fill:#ff0023;fill-opacity:1;stroke:none;stroke-width:24.8788;stroke-linecap:round;stroke-linejoin:round;stroke-dasharray:none;stroke-opacity:1;stop-color:#000000"
           d="m -2479.413,2780.4245 v -19.3374 l 64.6899,0.466 c 35.5794,0.2562 65.0773,0.8524 65.5508,1.3247 0.4736,0.4724 1.0269,8.9645 1.2297,18.8715 l 0.3686,18.0126 h -65.9195 -65.9195 z"
           id="path102995"
           transform="scale(0.26458333)" /><path
           style="fill:#ffffff;fill-opacity:1;stroke:none;stroke-width:24.8788;stroke-linecap:round;stroke-linejoin:round;stroke-dasharray:none;stroke-opacity:1;stop-color:#000000"
           d="m -2762.461,2781.1115 v -19.7476 h 88.8639 88.8639 v 19.7476 19.7475 h -88.8639 -88.8639 z"
           id="path102997"
           transform="scale(0.26458333)" /></g></g><path
       id="path98899-5-4"
       style="fill:#ffffff;fill-opacity:1;stroke:none;stroke-width:1.29395;stroke-linecap:round;stroke-linejoin:round;stroke-dasharray:none;stroke-opacity:1;stop-color:#000000"
       d="m -738.03194,534.7198 c -9.33147,0.0273 -18.37722,3.22234 -25.65582,9.06182 -14.41852,11.5896 -19.34223,31.36992 -12.03938,48.36638 h 6.11989 c -5.1904,-12.51306 -1.50534,-26.95015 9.04728,-35.44483 10.79851,-8.65687 26.07238,-8.9577 37.20339,-0.73276 3.41079,2.91924 10.6883,3.85469 10.6883,3.85469 0.0108,-0.0278 0.0217,-0.0556 0.0325,-0.0834 0.0108,0.0278 0.0217,0.0556 0.0325,0.0834 0,0 7.63152,-1.36779 10.68857,-3.85469 11.13101,-8.22494 26.40488,-7.92411 37.20339,0.73276 10.56952,8.48232 14.27435,22.9215 9.09456,35.44483 h 6.11036 c 7.29435,-17.00479 2.35466,-36.78681 -12.0774,-48.36638 -14.87778,-11.92862 -35.99817,-12.08587 -51.05192,-0.3801 -7.25877,-5.64799 -16.19891,-8.70422 -25.39616,-8.68172 z m 25.3961,11.38997 a 5.1881997,5.1881997 0 0 1 5.18813,5.1881 5.1881997,5.1881997 0 0 1 -5.18813,5.1881 5.1881997,5.1881997 0 0 1 -5.18808,-5.1881 5.1881997,5.1881997 0 0 1 5.18808,-5.1881 z" /><rect
       style="fill:#ffffff;fill-opacity:1;stroke:none;stroke-width:1.29395;stroke-linecap:round;stroke-linejoin:round;stroke-dasharray:none;stroke-opacity:1;stop-color:#000000"
       id="rect100474-9-8"
       width="11.860385"
       height="18.769423"
       x="-718.56598"
       y="504.91602"
       ry="0.94331098" /></g></svg>
